<svg xmlns="http://www.w3.org/2000/svg" xmlns:xlink="http://www.w3.org/1999/xlink" width="212" height="212">
	<path transform="scale(0.207031 0.207031)" d="M418.366 120.717C429.272 119.663 448.515 120.437 458.247 125.166C459.786 125.913 460.744 126.595 461.358 128.265C461.253 128.741 461.29 129.274 461.041 129.694C460.08 131.319 447.472 133.667 445.309 134.178C431.061 137.547 416.57 140.946 402.578 145.258Q395.97 147.316 389.436 149.599Q382.902 151.882 376.45 154.388Q369.998 156.894 363.636 159.62Q357.274 162.346 351.009 165.289Q344.745 168.231 338.585 171.387Q332.425 174.543 326.376 177.909Q320.328 181.274 314.399 184.845Q308.47 188.416 302.667 192.188C295.287 197.02 285.856 202.387 279.816 208.721C270.634 218.35 280.451 226.989 284.054 236.588C285.738 241.073 286.027 245.149 286.122 249.895C295.391 260.24 305.419 269.861 315.094 279.818L384.639 351.003L452.697 420.892C472.464 441.367 491.942 462.284 512.685 481.766C531.382 462.509 549.145 442.046 567.278 422.232L654.182 327.705L652.31 323.373C656.443 316.203 667.123 306.006 673.039 299.411C683.803 287.412 694.302 274.854 705.471 263.243C707.426 261.21 709.86 260.047 712.145 258.463C716.71 255.3 720.102 249.112 721.936 243.978C728.058 226.843 724.85 207.299 729.431 190.025C732.912 176.9 751.277 161.235 759.317 149.311C762.112 145.165 764.431 136.258 768.662 133.995C772.598 131.89 777.193 131.771 781.376 133.177C794.312 137.527 861.082 199.707 866.871 212.521C868.02 215.064 868.068 217.603 867.022 220.193C864.817 225.653 852.237 237.784 847.744 242.853C841.858 249.493 834.522 260.303 828.309 265.648C817.131 275.264 794.169 277.012 779.806 280.53C772.618 282.291 765.917 284.612 759.151 287.606C751.386 298.673 741.577 308.706 732.563 318.777C721.299 331.364 710.1 344.459 697.905 356.149C694.086 359.811 688.82 359.538 685.125 363.434L545.403 513.476C559.338 528.402 573.927 542.783 588.087 557.5L654.537 627.371L654.949 627.462C656.452 627.784 658.152 628.046 659.46 628.897C665.881 633.08 688.401 657.689 693.609 664.463C695.15 662.983 696.794 661.789 698.527 660.553C703.981 660.302 706.603 661.023 711.11 664.013Q733.227 640.28 754.927 616.166C758.972 611.692 764.383 606.553 770.773 606.399C776.982 606.25 781.988 609.733 786.348 613.778C803.086 629.313 818.862 646.164 834.998 662.34C846.209 673.58 859.505 685.335 869.706 697.264C893.302 724.857 905.285 761.895 906.435 797.841C907.111 819 902.908 839.97 897.085 860.198C895.513 865.655 893.714 873.495 889.594 877.558C885.79 881.309 879.444 883.563 874.589 885.694C850.556 896.239 826.655 902.189 800.351 902.767C763.921 903.568 727.265 893.062 698.384 870.313C689.068 862.975 680.443 853.868 671.861 845.669C659.346 833.794 647.34 821.511 635.032 809.444C627.054 801.623 616.931 793.59 610.764 784.314C609.113 781.83 608.171 778.704 608.045 775.729C607.89 772.045 609.26 768.388 611.638 765.592C615.969 760.499 622.172 756.349 627.354 752.137Q638.778 742.948 649.501 732.95C653.73 728.936 657.821 724.546 661.343 719.893C664.537 715.672 667.379 711.145 671.057 707.32C670.267 706.468 669.462 705.613 668.743 704.699C666.826 702.264 666.694 700.323 667.035 697.326C655.76 685.875 644.039 674.665 633.394 662.616C629.14 657.801 626.411 651.985 621.904 647.274C617.08 642.232 611.833 637.544 606.887 632.614L575.556 601.153C556.105 581.763 536.946 562.004 517.089 543.029C511.101 548.485 505.589 554.985 500.081 560.959L466.664 597.617Q398.496 670.345 331.798 744.422L240.718 844.33L206.686 881.294C202.505 885.781 198.506 890.51 194.182 894.849C192.697 896.34 191.058 897.741 188.997 898.343C186.693 899.016 184.395 898.421 182.355 897.273C178.143 894.902 161.726 880.383 158.356 876.536C157.29 875.32 155.492 873.062 155.383 871.361C155.209 868.671 158.686 864.45 160.371 862.502C166.69 855.193 173.655 848.369 180.169 841.223L255.713 759.971L420.671 580.813L457.767 540.407C466.947 530.545 476.596 520.782 485.278 510.493C457.492 482.758 430.782 453.977 403.472 425.778L323.948 344.572L278.251 297.591C272.154 291.271 261.08 278.517 254.58 273.615C250.869 270.816 244.977 269.595 240.67 267.645C237.35 266.141 234.188 264.293 230.903 262.716C228.586 261.603 224.375 259.413 221.904 260.453C216.485 262.735 210.624 270.045 206.566 274.348Q201.423 279.733 196.5 285.32Q191.577 290.906 186.881 296.686Q182.186 302.465 177.725 308.428Q173.265 314.391 169.047 320.527Q164.829 326.664 160.861 332.964Q156.892 339.265 153.179 345.72Q149.465 352.174 146.014 358.772Q142.562 365.37 139.377 372.101Q132.632 386.709 127.368 401.913C126.037 405.711 125.522 410.207 123.747 413.754C123.073 415.1 122.439 415.718 121.01 416.134L120.076 415.616C118.858 413.633 118.613 411.617 118.462 409.329C114.804 354.151 144.615 300.282 178.097 258.536C187.706 246.554 198.408 235.514 208.586 224.024C207.766 223.003 206.877 221.968 206.167 220.867C205.295 219.516 204.54 217.555 205.162 215.954C207.123 210.913 225.145 193.684 230.497 191.721C234.567 191.846 238.753 195.835 242.089 198.052C290.221 154.053 352.901 124.837 418.366 120.717Z"/>
	<path fill="#FEFEFE" transform="scale(0.207031 0.207031)" d="M229.575 198.855C231.042 199.638 232.23 201.004 233.429 202.158C230.504 205.329 227.456 208.404 224.471 211.521C222.629 210.526 221.534 208.561 220.404 206.875C223.082 203.701 226.193 201.232 229.575 198.855Z"/>
	<path fill="#FEFEFE" transform="scale(0.207031 0.207031)" d="M775.505 137.572Q777.373 137.925 779.156 138.586C792.54 143.553 849.524 198.767 859.688 212.103C860.906 213.702 861.758 215.406 862.602 217.221C862.357 217.684 862.114 218.149 861.853 218.604C860.404 221.128 859.103 223.38 856.15 224.166C849.185 218.544 843.227 211.727 837.096 205.233Q826.377 193.814 815.13 182.915C800.688 169.055 784.523 157.721 769.002 145.217C768.663 144.033 768.393 143.134 768.993 141.971C770.268 139.501 773.035 138.415 775.505 137.572Z"/>
	<path fill="#FEFEFE" transform="scale(0.207031 0.207031)" d="M655.885 633.278C658.946 634.459 684.03 661.769 688.976 667.02C683.658 672.698 678.409 678.871 673.897 685.211C672.703 686.889 670.893 690.732 669.1 691.322C658.45 678.621 645.124 668.194 634.232 655.685C640.96 647.853 648.492 640.484 655.885 633.278Z"/>
	<path transform="scale(0.207031 0.207031)" d="M657.929 654.496C658.914 654.348 659.865 654.294 660.859 654.339C663.132 654.441 665.239 655.315 666.755 657.063C667.805 658.274 668.3 659.794 668.037 661.403C667.68 663.586 666.253 664.843 664.667 666.227C663.791 666.438 662.92 666.58 662.021 666.638C660.008 666.77 658.293 666.218 656.84 664.775C655.698 663.642 655.118 662.098 655.13 660.499C655.147 657.975 656.244 656.265 657.929 654.496Z"/>
	<path fill="#FEFEFE" transform="scale(0.207031 0.207031)" d="M757.825 160.81C759.544 161.616 761.066 162.807 762.61 163.905C755.445 172.494 748.066 180.95 741.085 189.685C740.314 196.884 740.621 204.223 740.159 211.459Q739.529 222.867 737.809 234.162Q736.088 245.458 733.293 256.536L751.144 274.548C761.965 272.275 772.466 268.673 783.25 266.243C791.505 264.383 800.181 263.727 808.327 261.528C811.095 260.78 813.765 259.696 816.178 258.133C824.407 252.803 831.638 242.907 837.857 235.337C839.32 236.999 840.644 238.796 842.005 240.543Q837.888 245.489 833.873 250.518C830.016 255.48 826.055 260.819 820.632 264.168C811.835 269.599 794.024 271.352 783.459 273.81C776.89 275.338 770.496 277.34 764.128 279.545C761.347 280.509 758.234 281.483 755.816 283.196C753.888 284.561 752.772 287.398 750.449 287.97C746.551 286.111 725.71 264.726 719.89 259.764C722.464 255.836 724.96 251.943 726.717 247.569C731.931 234.594 732.226 218.301 733.45 204.396C733.853 199.813 733.791 194.227 735.54 189.954C739.166 181.093 751.085 167.737 757.825 160.81Z"/>
	<path fill="#FEFEFE" transform="scale(0.207031 0.207031)" d="M702.917 667.274C703.086 667.353 703.273 667.402 703.424 667.511C706.436 669.689 708.752 678.659 710.257 682.248C714.888 693.295 721.655 704.293 728.568 714.044C735.375 723.645 743.027 732.559 750.611 741.545C765.507 759.197 780.898 776.181 796.62 793.093C800.048 796.781 817.716 814.734 818.429 818.064C818.711 819.38 818.049 820.204 817.373 821.238C816.584 821.699 816.215 822.118 815.257 822.053C810.737 821.743 804.843 813.601 801.904 810.357C787.97 794.96 772.19 780.907 756.882 766.889C736.162 747.916 716.197 728.275 692.9 712.357C686.695 708.118 680.084 704.868 673.697 700.972C682.93 689.606 692.238 677.318 702.917 667.274Z"/>
	<path fill="#FEFEFE" transform="scale(0.207031 0.207031)" d="M541.518 518.343C544.895 519.898 569.434 546.529 574.038 551.297C599.47 577.636 625.338 603.531 649.894 630.709Q643.658 637.91 636.899 644.624C631.509 639.589 626.539 634.046 621.35 628.799L582.835 589.685L547.765 554.634C540.719 547.536 533.346 540.552 527.012 532.802Q534.166 525.473 541.518 518.343Z"/>
	<path transform="scale(0.207031 0.207031)" d="M612.276 609.735C613.016 609.808 613.777 609.854 614.476 610.139C616.856 611.109 621.046 614.43 622.052 616.848C622.507 617.94 622.317 618.174 621.913 619.209C621.021 619.449 620.163 619.57 619.245 619.676C617.352 618.848 615.597 617.658 614.3 616.026C612.526 613.792 611.971 612.516 612.276 609.735Z"/>
	<path transform="scale(0.207031 0.207031)" d="M596.401 591.335C597.045 591.715 597.606 592.147 598.167 592.642C601.141 595.263 608.365 601.574 608.693 605.699C608.078 607.055 607.974 607.124 606.694 607.9C603.287 605.617 594.021 597.483 593.09 593.505C593.963 592.305 595.093 591.964 596.401 591.335Z"/>
	<path transform="scale(0.207031 0.207031)" d="M626.387 621.466C630.652 623.214 638.377 632.235 640.584 636.194C640.395 637.618 639.108 638.599 638.154 639.593C634.201 635.892 626.133 628.85 623.911 624.103C624.488 622.581 625.084 622.389 626.387 621.466Z"/>
	<path transform="scale(0.207031 0.207031)" d="M536.336 532.36C537.582 532.511 538.309 532.664 539.325 533.442C543.756 536.835 547.624 541.979 551.602 545.958C560.135 554.495 572.641 565.446 579.93 574.548C581.116 576.029 581.309 576.374 581.61 578.267C580.948 579.791 580.487 579.902 579.119 580.772C573.646 576.343 568.571 570.38 563.559 565.385C557.495 559.342 551.579 553.167 545.571 547.071C541.586 543.027 537.333 539.118 533.687 534.765C534.136 533.473 535.223 533.104 536.336 532.36Z"/>
	<path fill="#FEFEFE" transform="scale(0.207031 0.207031)" d="M714.416 263.86C714.827 263.875 715.229 263.863 715.629 263.982C719.706 265.2 743.655 289.648 746.709 294.307C740.727 302.021 733.602 309.216 726.991 316.407C715.298 329.122 703.49 341.854 692.304 355.018C687.952 351.676 684.089 347.422 680.153 343.596Q669.82 333.485 659.319 323.548L692.145 286.612C697.987 280.03 703.759 272.587 710.216 266.631C711.492 265.453 712.874 264.641 714.416 263.86Z"/>
	<path fill="#FEFEFE" transform="scale(0.207031 0.207031)" d="M766.619 167.721C769.877 168.468 773.841 172.423 776.447 174.525C797.322 191.362 815.934 210.727 834.026 230.469C828.373 237.333 817.365 252.247 809.559 255.61C805.89 257.19 800.964 257.331 796.986 257.835C781.784 260.59 767.533 264.042 752.803 268.698C748.825 263.576 743.817 259.1 739.279 254.471C745.363 235.055 746.953 212.396 746.247 192.129C753.352 184.258 759.544 175.626 766.619 167.721Z"/>
	<path fill="#FEFEFE" transform="scale(0.207031 0.207031)" d="M281.53 254.341C286.906 256.979 326.907 299.699 335.142 308.123L508.441 486.101C506.287 488.721 503.702 491.128 501.343 493.575Q481.955 472.709 461.766 452.617C457.959 448.817 454.432 444.46 450.399 440.924C449.06 439.75 447.664 438.676 445.772 438.898C444.92 438.998 444.914 439.42 444.476 440.073C444.572 441.992 445.026 442.322 446.137 443.833C457.905 456.355 470.03 468.588 481.963 480.957C486.356 485.512 491.838 490.097 495.711 495.031C496.325 495.813 496.796 496.623 496.795 497.656C496.793 498.957 496.426 499.225 495.498 499.926C494.39 499.832 493.727 499.295 492.925 498.569C490.778 496.624 488.932 494.25 486.947 492.129C483.189 488.115 479.204 484.272 475.366 480.329L429.256 432.578L332.981 334.32C311.377 312.455 288.558 290.557 268.065 267.764C272.623 263.339 276.84 258.648 281.53 254.341Z"/>
	<path transform="scale(0.207031 0.207031)" d="M406.953 398.719C407.398 398.765 407.599 398.761 408.056 398.943C410.752 400.016 440.502 429.947 441.507 432.675C441.307 434.414 440.887 434.782 439.86 436.151C435.353 433.43 408.28 406.485 405.243 401.791C405.307 400.213 405.938 399.886 406.953 398.719Z"/>
	<path transform="scale(0.207031 0.207031)" d="M276.054 263.338C276.772 263.483 277.272 263.652 277.862 264.137C282.214 267.716 286.205 273.045 290.164 277.137L320.438 308.059L385.453 374.214C389.444 378.341 393.778 382.172 397.688 386.372C398.749 387.512 399.775 388.589 400.094 390.153C399.911 391.716 398.947 392.447 397.889 393.494C391.489 388.57 385.813 381.988 380.141 376.223L348.785 344.238L308.904 303.684C299.495 294.279 290.337 284.737 281.235 275.038C279.018 272.676 276.403 270.569 274.296 268.144C273.699 267.458 273.494 266.846 273.257 265.986C273.765 264.276 274.551 264.216 276.054 263.338Z"/>
	<path fill="#FEFEFE" transform="scale(0.207031 0.207031)" d="M416.908 126.71C427.092 125.785 437.759 126.539 447.851 127.905C442.003 129.748 435.862 130.815 429.879 132.15Q418.416 134.738 407.12 137.977Q399.953 140.114 392.867 142.507Q385.781 144.9 378.786 147.547Q371.791 150.193 364.896 153.09Q358.001 155.987 351.214 159.13Q344.427 162.272 337.758 165.658Q331.089 169.043 324.546 172.665Q318.003 176.288 311.595 180.144Q305.186 184 298.921 188.084C291.312 193.057 278.642 200.203 273.528 207.722C268.722 214.788 270.094 222.43 271.395 230.264C267.722 234.752 256.648 247.53 251.343 248.956C246.877 250.156 241.938 249.913 237.362 250.714C235.742 250.998 234.336 251.377 233.339 252.763C233.307 254.452 234.383 255.308 235.366 256.645L235.129 257.083C228.946 257.006 225.726 254.597 218.809 255.629C211.842 260.93 205.748 267.612 199.787 273.988C180.592 294.52 167.679 311.878 152.765 335.771C148.139 343.429 143.991 351.412 139.664 359.245C150.739 320.636 174.497 281.211 200.545 250.808C207.384 242.826 214.831 235.447 221.909 227.693C234.876 213.489 245.418 201.782 260.389 189.407C303.521 153.755 361.263 131.067 416.908 126.71Z"/>
	<path transform="scale(0.207031 0.207031)" d="M341.536 147.406C342.835 147.551 343.514 147.984 344.632 148.596C344.895 149.426 345.064 149.339 344.769 149.99C343.052 153.775 324.942 161.046 320.567 163.113C319.816 162.896 319.135 162.523 318.43 162.189C317.605 161.063 317.525 161.086 317.619 159.708C321.259 154.865 335.509 150.036 341.536 147.406Z"/>
	<path transform="scale(0.207031 0.207031)" d="M391.154 132.556C391.714 132.639 391.919 132.653 392.516 132.831C393.935 133.253 394.582 133.508 395.244 134.802C395.162 135.003 395.097 135.211 394.999 135.403C394.373 136.627 393.435 137.123 392.239 137.674C388.384 139.451 384.051 140.223 379.991 141.419C374.892 142.923 369.893 144.672 364.888 146.457C364.075 146.498 363.221 146.493 362.566 145.912C361.562 145.022 361.541 144.507 361.503 143.281C364.149 138.891 385.459 134.031 391.154 132.556Z"/>
	<path transform="scale(0.207031 0.207031)" d="M242.121 214.612L242.657 214.548C246.178 214.151 249.108 214.166 251.934 216.573C254.705 218.933 255.744 222.49 255.902 226.018C256.081 229.995 255.32 234.06 252.437 236.994C250.297 239.17 248.043 239.538 245.105 239.65C242.776 239.622 240.505 239.501 238.309 238.648C235.451 237.538 233.014 235.41 231.786 232.576C230.469 229.536 230.585 226 231.917 222.988C233.931 218.436 237.756 216.38 242.121 214.612Z"/>
	<path fill="#FEFEFE" transform="scale(0.207031 0.207031)" d="M242.416 220.111C244.035 219.895 246.445 219.42 247.845 220.419C249.726 221.763 250.771 224.406 250.912 226.65C251.058 228.968 250.335 231.808 248.662 233.494C247.553 234.611 245.62 234.51 244.148 234.604C243.096 234.39 242.02 234.186 240.995 233.864C239.013 233.241 237.315 231.646 236.476 229.759C235.81 228.259 235.757 226.587 236.384 225.067C237.522 222.309 239.807 221.198 242.416 220.111Z"/>
	<path fill="#FEFEFE" transform="scale(0.207031 0.207031)" d="M658.379 330.844C665.426 336.734 672.298 343.539 678.777 350.059C670.777 361.123 659.839 370.774 650.552 380.847L593.014 443.538L432.345 616.038C408.091 642.104 382.953 667.287 359.486 694.105C349.298 705.749 339.574 718.276 330.577 730.857C322.125 742.676 313.97 755.067 304.778 766.308C298.523 773.958 291.523 780.955 284.874 788.257Q264.629 810.542 244.094 832.56L203.552 876.514C199.41 880.962 195.529 885.719 191.245 890.023C190.04 891.233 188.509 892.968 186.731 893.203C185.891 893.314 185.187 892.571 184.514 892.138C176.521 885.307 168.344 878.6 161.16 870.904C165.967 864.309 171.829 858.357 177.397 852.408L199.869 828.372L287.775 733.795L488.001 515.853L588.483 407.126C611.905 381.889 636.126 357.125 658.379 330.844Z"/>
	<path transform="scale(0.207031 0.207031)" d="M391.137 641.889C391.956 641.893 392.734 642.021 393.544 642.131C394.256 642.954 394.557 643.234 394.335 644.424C393.619 648.258 384.953 656.403 381.847 658.878C381.364 658.829 380.411 658.81 379.929 658.615C378.907 658.201 378.876 657.723 378.536 656.774C379.342 652.509 387.858 645.072 391.137 641.889Z"/>
	<path transform="scale(0.207031 0.207031)" d="M655.185 362.852C655.573 362.884 655.944 362.89 656.312 363.056C657.581 363.625 657.889 364.075 658.417 365.256C657.67 369.733 648.972 376.381 646.146 380.63C646.029 380.805 645.918 380.983 645.804 381.16C645.353 381.215 644.713 381.318 644.271 381.257C642.879 381.066 642.64 380.726 642.004 379.625C642.653 373.589 651.02 366.932 655.185 362.852Z"/>
	<path transform="scale(0.207031 0.207031)" d="M535.56 489.805C536.222 489.897 537.052 489.957 537.691 490.199C538.915 490.662 539.296 491.304 539.785 492.44C539.623 493.422 539.397 493.721 538.725 494.477C523.79 511.293 507.58 526.857 493.048 544.098C492.457 544.039 492.111 544.026 491.51 543.859C490.311 543.525 489.746 542.991 489.158 541.953C489.689 537.569 529.437 497.022 535.56 489.805Z"/>
	<path transform="scale(0.207031 0.207031)" d="M471.438 558.257C471.736 558.364 472.043 558.447 472.331 558.579C473.568 559.143 474.012 559.853 474.441 561.068C473.427 564.744 421.805 620.77 415.544 626.556L413.823 626.29C412.745 625.372 412.713 625.369 412.435 623.988C413.36 619.754 464.722 565.245 471.438 558.257Z"/>
	<path transform="scale(0.207031 0.207031)" d="M631.807 388.235C633.098 389.193 633.719 389.445 634.321 390.966C633.985 392.302 633.246 393.054 632.358 394.061C622.135 405.648 610.996 416.519 600.47 427.839Q584.676 445.04 568.511 461.893C564.362 466.262 560.434 470.855 556.143 475.084C555.685 474.869 554.91 474.531 554.526 474.228C553.399 473.339 553.406 472.76 553.31 471.458C554.597 468.476 624.82 394.44 631.807 388.235Z"/>
	<path fill="#FEFEFE" transform="scale(0.207031 0.207031)" d="M768.546 612.638C770.935 612.41 773.496 611.995 775.816 612.796C778.078 613.576 780.251 615.492 782.013 617.091C799.203 632.69 815.088 650.197 831.434 666.698C842.949 678.321 855.75 689.417 866.266 701.914C873.158 710.105 879.2 719.676 884.051 729.23C901.05 762.707 904.415 802.71 896.787 839.21C894.4 850.635 890.639 861.73 887.021 872.81C880.261 877.148 872.546 880.446 865.109 883.467C840.43 893.492 816.096 898.243 789.48 897.478C760.879 896.657 728.124 886.45 705.625 868.491C698.66 862.932 692.851 855.162 686.728 848.646L643.144 802.316L620.298 777.246Q621.155 775.989 622.081 774.782C636.993 755.076 666.019 736.727 690.469 733.529C695.355 732.889 699.728 733.574 704.285 735.349C728.684 744.852 769.34 785.099 788.727 804.61C795.084 811.008 802.951 820.709 809.89 825.775C812.036 827.342 814.294 828.267 816.979 827.707C819.509 827.179 821.822 825.49 823.136 823.272C825.714 818.92 823.236 814.93 820.346 811.515C784.807 769.516 729.671 722.382 715.272 667.964C725.402 656.416 736.073 645.303 746.48 634.004C752.178 627.818 757.587 620.788 763.822 615.178C765.209 613.929 766.821 613.288 768.546 612.638Z"/>
	<path transform="scale(0.207031 0.207031)" d="M780.068 627.667C781.331 627.992 782.235 628.369 783.251 629.193C787.733 632.827 809.453 654.121 812.36 658.396C812.291 660.215 811.791 660.577 810.741 662.017C810.565 661.993 810.389 661.975 810.215 661.946C809.087 661.758 808.457 661.272 807.612 660.552C803.282 656.865 799.477 652.344 795.442 648.322C790.05 642.949 783.14 637.628 778.808 631.378C778.74 629.642 779.222 629.15 780.068 627.667Z"/>
</svg>